<?xml version="1.0" encoding="UTF-8" standalone="no"?>
<svg
   width="100"
   height="100"
   viewBox="0 0 24 24"
   fill="none"
   version="1.1"
   id="svg3"
   sodipodi:docname="logo.svg"
   inkscape:version="1.4 (86a8ad7, 2024-10-11)"
   xml:space="preserve"
   xmlns:inkscape="http://www.inkscape.org/namespaces/inkscape"
   xmlns:sodipodi="http://sodipodi.sourceforge.net/DTD/sodipodi-0.dtd"
   xmlns="http://www.w3.org/2000/svg"
   xmlns:svg="http://www.w3.org/2000/svg"><defs
     id="defs3"><marker
       id="arrowhead"
       markerWidth="10"
       markerHeight="7"
       refX="10"
       refY="3.5"
       orient="auto"><polygon
         points="10,3.5 0,7 0,0 "
         fill="#000000"
         id="polygon5" /></marker><marker
       id="marker1"
       markerWidth="10"
       markerHeight="7"
       refX="10"
       refY="3.5"
       orient="auto"><polygon
         points="10,3.5 0,7 0,0 "
         fill="#000000"
         id="polygon1" /></marker><marker
       id="marker2"
       markerWidth="10"
       markerHeight="7"
       refX="10"
       refY="3.5"
       orient="auto"><polygon
         points="10,3.5 0,7 0,0 "
         fill="#000000"
         id="polygon2" /></marker><marker
       id="marker3"
       markerWidth="10"
       markerHeight="7"
       refX="10"
       refY="3.5"
       orient="auto"><polygon
         points="10,3.5 0,7 0,0 "
         fill="#000000"
         id="polygon3" /></marker><marker
       id="marker4"
       markerWidth="10"
       markerHeight="7"
       refX="10"
       refY="3.5"
       orient="auto"><polygon
         points="10,3.5 0,7 0,0 "
         fill="#000000"
         id="polygon4" /></marker><marker
       id="marker6"
       markerWidth="10"
       markerHeight="7"
       refX="10"
       refY="3.5"
       orient="auto"><polygon
         points="10,3.5 0,7 0,0 "
         fill="#000000"
         id="polygon6" /></marker></defs><sodipodi:namedview
     id="namedview3"
     pagecolor="#ffffff"
     bordercolor="#000000"
     borderopacity="0.25"
     inkscape:showpageshadow="2"
     inkscape:pageopacity="0.0"
     inkscape:pagecheckerboard="0"
     inkscape:deskcolor="#d1d1d1"
     inkscape:zoom="10.931871"
     inkscape:cx="43.679623"
     inkscape:cy="48.253406"
     inkscape:window-width="1920"
     inkscape:window-height="991"
     inkscape:window-x="-9"
     inkscape:window-y="-9"
     inkscape:window-maximized="1"
     inkscape:current-layer="svg3" /><g
     id="g1"
     transform="matrix(0.23704036,0,0,0.3774773,15.822313,3.7220013)"><ellipse
       cx="12"
       cy="5"
       rx="9"
       ry="3"
       stroke="#000000"
       stroke-width="2"
       id="ellipse1" /><path
       d="m 3,5 v 5 c 0,1.5 4,3 9,3 5,0 9,-1.5 9,-3 V 5"
       stroke="#000000"
       stroke-width="2"
       id="path1" /><path
       d="m 3,10 v 5 c 0,1.5 4,3 9,3 5,0 9,-1.5 9,-3 v -5"
       stroke="#000000"
       stroke-width="2"
       id="path2" /><path
       d="m 3,15 v 4 c 0,1.5 4,3 9,3 5,0 9,-1.5 9,-3 v -4"
       stroke="#000000"
       stroke-width="2"
       id="path3" /></g><ellipse
     cx="2.1656291"
     cy="3.9548371"
     fill="none"
     stroke="#000000"
     stroke-width="0.078129"
     id="circle1"
     rx="0.62905747"
     ry="0.97036433" /><ellipse
     cx="2.1656291"
     cy="8.8066597"
     fill="none"
     stroke="#000000"
     stroke-width="0.078129"
     id="circle2"
     rx="0.62905747"
     ry="0.97036433" /><ellipse
     cx="2.1656291"
     cy="13.658484"
     fill="none"
     stroke="#000000"
     stroke-width="0.078129"
     id="circle3"
     rx="0.62905747"
     ry="0.97036433" /><ellipse
     cx="11.60149"
     cy="6.3807507"
     fill="none"
     stroke="#000000"
     stroke-width="0.078129"
     id="circle4"
     rx="0.62905747"
     ry="0.97036433" /><ellipse
     cx="11.60149"
     cy="11.23257"
     fill="none"
     stroke="#000000"
     stroke-width="0.078129"
     id="circle5"
     rx="0.62905747"
     ry="0.97036433" /><line
     x1="2.7932184"
     y1="3.9500079"
     x2="10.961693"
     y2="6.0238757"
     stroke="#000000"
     stroke-width="0.078129"
     marker-end="url(#arrowhead)"
     id="line5" /><line
     x1="2.7941828"
     y1="3.9536064"
     x2="11.070589"
     y2="10.838377"
     stroke="#000000"
     stroke-width="0.078129"
     marker-end="url(#arrowhead)"
     id="line6" /><line
     x1="2.7946858"
     y1="8.8066597"
     x2="10.972432"
     y2="6.3807507"
     stroke="#000000"
     stroke-width="0.078129"
     marker-end="url(#arrowhead)"
     id="line7" /><line
     x1="2.7946858"
     y1="8.8066597"
     x2="10.972432"
     y2="11.23257"
     stroke="#000000"
     stroke-width="0.078129"
     marker-end="url(#arrowhead)"
     id="line8" /><line
     x1="2.7941561"
     y1="13.659808"
     x2="10.98517"
     y2="6.7560186"
     stroke="#000000"
     stroke-width="0.078129"
     marker-end="url(#arrowhead)"
     id="line9" /><line
     x1="2.7928905"
     y1="13.664234"
     x2="10.998643"
     y2="11.660858"
     stroke="#000000"
     stroke-width="0.078129"
     marker-end="url(#arrowhead)"
     id="line10" /><g
     style="fill:#000000;stroke-width:1.00019905;stroke-dasharray:none;fill-opacity:1"
     id="g5"
     transform="matrix(0,-0.18484861,0.18228725,0,11.76424,10.991071)"><path
       id="Vector"
       d="m 11,16 -3,3 m 0,0 -3,-3 m 3,3 V 5 m 5,3 3,-3 m 0,0 3,3 M 16,5 v 14"
       stroke="#4089FF"
       stroke-width="2"
       stroke-linecap="round"
       stroke-linejoin="round"
       style="stroke-width:1.00019905;stroke-dasharray:none;fill:#4089FF;fill-opacity:1" /></g><text
     x="0.86925209"
     y="20.900709"
     font-family="Arial"
     font-size="3.46369px"
     fill="#4089FF"
     id="text1"
     style="stroke-width:0.115457"
     transform="scale(1.0739473,0.93114437)">Neura Query</text></svg>
